<?xml version="1.0" encoding="utf-8"?>
<!-- Generator: Adobe Illustrator 25.4.1, SVG Export Plug-In . SVG Version: 6.00 Build 0)  -->
<svg version="1.1" id="myName" xmlns="http://www.w3.org/2000/svg" xmlns:xlink="http://www.w3.org/1999/xlink" x="0px" y="0px"
	 viewBox="125 0 251.5 68" style="enable-background:new 125 0 251.5 68;" xml:space="preserve">
<g transform="translate(0.000000,164.000000) scale(0.100000,-0.100000)">
	<path d="M1074.6,1603.4c-3-11.6-35.9-28.4-66.6-34.6l-23.7-5.3l19.5-14.2c17.3-12.9,21.6-14.2,40.2-12c17.8,1.7,20.4,1.4,20.4-6.2
		c0-4.5-3-11.6-6.9-15.1c-6.1-6.7-5.6-7.1,2.6-7.1c9.6,0,51,26.2,61,38.2c3,4,10.4,8.8,16,11.1c9.1,3.6,10.4,6.2,7.8,18.2
		c-3,16-6.9,19.5-28.6,25.3C1077.6,1612.3,1076.8,1612.7,1074.6,1603.4z"/>
	<path d="M2231.6,1595c-26.3-12.4-31.5-14.2-75.6-28.4c-23.7-7.6-52.3-18.2-64-23.1c-17.3-7.6-23-8.5-29.4-4.5
		c-6.5,4.5-8.2,4-8.2-0.5c0-7.1,9.6-16.4,29.4-28c11.7-6.7,15.5-7.1,22.5-2.6c8.7,5.3,21.6,7.1,21.6,3.1c0-8.5-23.3-47-33.8-56
		c-6.5-6.2-13.4-14.7-15.1-19.1c-1.7-4.5-6.9-8.8-11.7-10.2c-10.8-3.1-10.8-3.6,0.4-15.1c6.9-7.1,8.7-13.8,7.8-36
		c-0.9-23.5,0.4-28,9.1-35.6c5.2-4.5,9.1-8.8,7.8-10.2c-3.9-4.5-51.4-24.4-57.5-24.4c-7.8,0-8.2-5.3-1.3-12.4
		c6.5-6.7,0-7.1-15.1-1.4c-14.3,5.7-16.9,1.7-9.1-13.8c10.4-20.4,45-37.7,54.9-27.5c1.3,1.7-0.4,8.8-3.9,16
		c-3.9,7.6-6.1,13.8-5.2,13.8c0.9,0.5,7.3,4.5,14.3,8.5c7.3,4.5,23.3,12.9,35.9,19.1c20.4,9.8,23.7,10.7,32.4,4.9
		c5.2-3.6,17.3-8,26.8-9.8c9.6-1.4,18.6-4,20.4-4.9c5.6-3.1-19-36.8-26.8-36.8c-3.9,0-16.4,8.5-27.7,18.2
		c-21.2,19.5-28.6,20.4-19.9,3.1c9.1-17.3,26.8-34.2,42-39.6c16-5.3,18.1-10.2,6.9-16.9c-5.6-3.1-13.8-0.5-32.4,9.3
		c-19.5,10.2-24.6,15.5-26,24.9c-1.3,11.1-21.6,28.4-27.2,22.6c-5.6-6.2,3.9-31.5,13.4-36c13.4-6.2,12.9-12.9-1.3-36
		c-14.3-23.1-70.9-92.8-73.5-90.2c-0.9,0.9,0,9.3,2.6,19.1c12.9,48-9.1,97.3-48,105.7c-6.5,1.7-12.1,5.3-12.1,8
		c0,3.1,11.7,21.3,26,40.8c30.7,41.3,50.2,76.4,58.4,103.9c7.8,24.9,2.1,36-30.3,59.1l-23,16.4l-1.7-18.7
		c-1.3-10.2-7.8-30.6-13.8-45.3c-6.5-14.7-14.3-32.5-17.8-39.9c-3-7.1-7.8-21.8-10.4-31.5c-2.6-10.2-7.8-20.9-11.3-24
		s-6.5-9.8-6.5-14.7c0-5.3-4.7-16.4-9.9-24.9c-17.8-27.5-26-41.8-37.6-64.8c-16.9-32.8-30.3-55.1-47.6-80
		c-26.3-37.3-23.7-37.3,10.4,0c39.7,43.1,44.1,48.9,46.2,54.6c3.5,9.3,48.8,58.6,54,58.6c3,0,7.8-4,10.4-8.5
		c6.1-12,1.7-83.5-6.5-109.2c-7.8-22.6-6.1-33.3,4.3-33.3c3.5,0,6.5-2.2,6.5-4.5c0-4.5,25.1-22.2,31.5-22.2c1.7,0,3,3.1,3,6.7
		s3,6.7,6.5,6.7s6.5,4,6.5,8.5c0,4.9,3.9,10.2,9.6,12c12.1,4,25.5,15.5,86.9,74.6c4.7,4.5,16.4,10.2,26,12.4s22.1,8,28.1,12.4
		c11.3,9.3,26.8,12,26.8,4.5c0-2.6-5.2-15.1-11.3-27.5l-11.3-22.6l-21.2,2.6c-11.7,1.4-21.2,1.7-21.2,0.9c0-1.4,5.6-4.9,12.9-8.8
		c15.1-8,13.8-13.8-9.1-31.1c-9.6-7.1-15.1-13.8-12.1-15.1c2.6-0.9,6.1,0,7.8,2.2c1.3,2.2,8.7,7.6,15.5,11.6
		c32.4,19.1,30.7,19.1,52.8,7.1c60.5-33.3,99-51.1,124.6-57.7c12.1-2.6,25.1-8,28.9-11.6c7.8-6.7,42-9.8,49.3-4.5
		c6.1,4.5,84.7,20.4,109.8,22.2l19.5,1.4l-19.5,6.2c-10.8,3.6-27.2,9.8-36.8,14.2c-25.1,11.6-53.2,17.3-55.4,11.6
		c-0.9-3.6-9.6-3.1-29.4,0.9c-15.1,3.6-38.9,7.1-52.3,8c-13.8,1.4-25.1,3.6-25.1,5.7c0,2.2-16.9,4.9-37.6,6.7
		c-35.4,3.1-74.8,16-74.8,24c0,2.2,5.6,10.2,12.9,18.2c6.9,8,16.9,23.5,21.6,34.6l8.7,20l-8.7,6.2c-9.6,6.7-11.7,19.1-3.9,19.1
		c3,0,15.5,7.1,28.1,15.5c12.5,8.5,28.9,16.9,36.8,18.7l13.8,2.6l-11.3,10.2c-14.7,12.9-14.7,17.8,0.4,21.8
		c14.7,3.6,39.7,23.1,39.7,31.1c0,3.1-5.6,9.8-12.9,14.2c-11.3,7.6-17.3,8-48,4.9c-19.5-1.7-36.8-2.6-38-1.4
		c-1.7,0.9-2.6,31.1-2.1,66.7c0.9,73.8,2.1,71-40.2,84.8c-12.5,4-23,8.8-23,10.2c0,4,17.8,10.7,62.7,24.4
		c21.6,6.7,43.7,14.2,49.7,17.3c15.1,8,16,19.1,1.3,24.4c-6.5,2.2-15.1,5.7-18.6,7.1C2249.8,1600.7,2239.8,1598.5,2231.6,1595z
		 M2179.7,1457.7c0-8.5-6.1-13.8-35-28.4c-19.5-10.2-35.9-17.8-36.3-17.3c-0.4,0.9-2.6,5.7-3.9,11.6c-2.1,6.7-1.3,9.8,3,9.8
		c5.2,0,45.4,24.9,50.6,31.5c3,4,14.7,7.6,18.6,5.3C2178.5,1469.2,2179.7,1463.5,2179.7,1457.7z M2184.1,1408.9
		c0-15.1-0.4-15.5-16-15.1c-9.1,0-23-1.7-31.2-4.5c-16-4.9-22.1-3.1-22.1,6.7c0,3.6,4.3,6.2,9.9,6.7c5.2,0,19.5,4.9,31.2,10.7
		C2184.1,1427,2184.1,1427,2184.1,1408.9z M2183.2,1365.7c-1.3-12.9-3.5-15.1-16.4-17.8c-8.2-1.4-22.5-4.9-31.2-7.1
		c-14.7-4-16-3.6-18.6,6.7c-1.3,6.2-2.1,12-1.3,12.4c1.3,1.4,59.2,18.7,65.3,19.5C2183.2,1379.5,2184.1,1373.3,2183.2,1365.7z
		 M2261.8,1340.8c0-2.2-3.9-8-8.7-13.3c-9.6-10.2-19.9-12.4-29.8-5.7c-8.7,5.7,0.9,16.9,16,19.5
		C2260.2,1344.4,2261.8,1344.4,2261.8,1340.8z M2203.1,1327.1c3.5-5.7-36.8-14.2-45-9.3c-5.6,3.6-5.6,4,0,6.2
		C2178.9,1331.1,2200.1,1332.5,2203.1,1327.1z M2218.6,1305.4c0-1.7-2.6-6.2-5.2-9.3c-4.7-4.9-4.3-5.3,0-3.1c3,1.7,8.2,2.2,11.7,0.9
		c5.2-1.7,3.9-6.7-5.2-24.9c-6.1-12-12.9-22.2-14.7-22.2c-4.3,0-5.2,54.6-0.9,59.1C2208.3,1310.2,2218.6,1309.8,2218.6,1305.4z"/>
	<path d="M899.1,1547.8c-5.2-5.3-25.1-18.2-44.1-28c-19.5-10.2-48.8-28-66.2-39.1c-17.3-11.6-37.1-22.2-44.1-23.5
		c-7.3-1.7-13.4-4-13.4-5.7c0-1.4,6.9-8.5,15.5-15.5c14.3-11.6,17.8-12.4,38.5-9.8c19,2.2,24.6,0.9,34.2-6.7
		c6.1-4.9,11.3-10.7,11.3-12.4c0-4.9-42.4-31.5-49.3-31.5c-3.5,0-12.9,8.8-21.6,19.5c-16.4,20.4-45.4,39.9-67.4,44.9
		c-19.9,4.5-16.4-4.9,17.3-43.9c17.3-20,30.3-39.1,30.3-44.4c0-13.8,35.9-52.4,45-48.9c4.7,1.7,6.9,0.5,6.9-5.3
		c0-4.9,6.1-15.1,13.4-23.1c14.7-16,13.8-21.3-4.3-25.3c-12.1-2.6-61-35.6-61-40.8s48.8,3.6,64.8,12c20.7,11.1,21.6,11.1,21.6,0
		c0-5.7-3-8.8-7.8-8.8c-4.3,0-9.1-0.9-10.4-2.2c-3.9-4,5.6-43.5,12.1-50.1c3.5-3.1,6.1-7.1,6.1-8.8s-11.7-9.8-25.1-17.8
		c-13.8-8-32-20.9-40.2-28c-17.3-15.5-29.4-19.1-49.7-16c-7.8,1.4-14.7,1.7-14.7,0.5c0-4,31.2-30.2,45.4-37.7
		c13.8-8,15.5-8,31.2-0.5c35,16.4,57.9,33.7,72.6,54.6c8.7,12,20.4,25.3,25.5,29.3c5.2,4.5,16.9,18.2,26,30.2
		c9.1,12.4,22.5,28,28.9,35.1c20.7,21.8,14.3,21.3-18.6-2.2c-42.8-30.2-45.4-29.7-47.6,12.4c-1.7,32.5-1.3,35.6,9.1,45.8l11.3,11.1
		l-13.8,1.4c-12.1,1.4-14.3,3.1-14.3,12.4c0,7.1,3.5,12.4,10.8,16c6.1,2.6,10.8,6.7,10.8,8.8s5.6,3.1,12.5,1.4
		c11.7-2.6,12.9-1.4,17.8,12.9c2.6,8.8,6.5,16.9,8.2,17.8c1.7,1.4,12.5-2.6,24.2-8.5c11.7-6.2,25.1-11.1,30.3-11.1
		c14.7,0,50.2,20.4,70.9,40.8c10.4,10.2,23.3,21.3,28.1,24c5.2,2.6,16.9,9.3,26.3,14.2c19,10.7,54.5,18.7,80.5,18.7
		c23,0,22.1-8.5-4.7-39.9c-29.8-35.6-23.3-37.7,42.4-14.7c17.8,6.2,32.9,10.2,34.2,8.8c4.3-4.9,18.6,15.1,18.6,26.2
		c0,13.3-19.9,33.3-46.7,47c-16.4,8-24.2,8.8-54,6.7c-64.4-4.5-121.5-24-175.5-60.4c-27.2-18.2-58.8-31.1-63.6-26.2
		c-3.5,3.6,12.9,56.4,23.7,77.3c5.2,9.3,9.1,20.4,9.1,24c0,4,3,11.1,6.5,16.4c3.5,4.9,7.3,20.4,9.1,33.7l3,24.4l-19,5.3
		c-10.4,3.1-23.3,7.1-28.9,9.3C912.5,1559.4,909.9,1558.9,899.1,1547.8z M909.1,1479.4c-2.6-7.1-6.5-21.8-9.1-32.5
		c-4.7-19.1-5.2-19.1-20.4-16.9c-8.7,1.7-18.6,0.9-22.5-0.9c-6.9-4-26.3,8-26.3,16c0.4,6.2,75.3,54.6,78.7,51.1
		C911.7,1494.1,911.2,1487,909.1,1479.4z M798.3,1357.8c1.3-2.2,6.5-4.5,11.3-4.5c4.3,0,8.2-1.7,8.2-3.6c0-7.1-13.4-32-17.3-32
		c-2.6,0-17.3,36-17.3,43.1C783.3,1364.5,795.8,1361.7,798.3,1357.8z M864.1,1348c-1.3-3.1-2.1-0.9-2.1,5.3c0,6.2,0.9,8.5,2.1,5.7
		C865,1356,865,1350.7,864.1,1348z M869.7,1331.5c6.1-12,5.6-13.8-4.3-13.8c-6.5,0-8.7,3.1-8.7,11.1
		C856.7,1342.2,863.2,1343.6,869.7,1331.5z"/>
	<path d="M234.6,1530.1c3-5.7,9.1-15.5,14.3-22.6c7.3-10.2,9.1-20.9,10.4-65.3l1.7-53.3l-12-4.9c-6.9-2.6-29.8-6.7-51.4-8
		c-28.1-2.2-36.8-4.5-30.3-7.1c4.7-2.2,16.4-9.3,26-16c9.6-6.2,25.1-14.2,34.6-17.8c9.6-3.1,18.6-7.1,20.4-8.5
		c6.1-5.3-17.3-108.8-28.9-127c-3.5-5.7-6.5-12.9-6.5-16.4c0-3.1-10.4-17.3-22.5-31.5c-59.6-67.9-65.7-72.4-113.8-76.4
		c-45.8-3.6-40.2-10.2,8.2-8.8c29.4,0.5,39.7,2.6,64.4,14.7c16,8,30.3,17.3,31.5,20.9c1.3,3.6,6.5,7.6,11.7,8.8
		c5.2,1.3,12.1,8.5,15.1,16c3.5,7.1,11.3,16.4,17.8,20.4s13.8,12.4,16.9,19.1c3,6.7,9.1,16.4,13.8,21.8c4.7,5.3,8.7,11.6,8.7,14.2
		c0,4.5,9.1,22.6,39.4,79.5c3.9,7.1,9.9,18.2,13.8,24.4c4.3,6.2,9.6,21.3,12.1,33.7c2.5,12.4,7.3,24.9,10.4,28.4
		c3.5,3.1,19,9.8,35,14.2c29.8,8,47.1,20.4,43.7,29.7c-0.9,3.1-16.4,12.9-34.2,22.6c-26.8,14.2-33.8,16.4-41.5,12
		c-12.5-7.1-12.9-6.7-17.8,12c-6.9,24.9-31.5,50.1-69.2,69.8C229.9,1542.5,228.1,1542.5,234.6,1530.1z"/>
	<path d="M1038.4,1501.2c-3.5-1.4-12.5-8-19.9-14.2c-7.3-6.2-19.9-15.5-28.1-20c-12.9-8-13.4-8.8-5.6-10.2c4.7-0.9,19.5,2.2,32,7.6
		c23.7,9.8,28.6,8.5,31.2-6.7c1.7-10.2,14.3-13.3,36.3-8.8c11.7,2.2,14.7,4.9,14.7,12.9c0,12-15.1,27.5-31.5,31.5
		c-6.5,1.7-12.9,4.9-14.3,7.1C1050.4,1504.8,1047.8,1504.8,1038.4,1501.2z"/>
	<path d="M1082.4,1343.6c3.5-16.9-0.9-68.8-16.4-196.8c-3.5-25.8-13.8-33.7-37.1-27.5c-10.4,2.2-23.7,8-30.3,12.9
		c-17.3,12.4-19.9,1.4-3.9-18.7c14.3-18.2,16.4-24.9,8.7-27.5c-7.3-2.6-1.3-17.8,13.4-34.6c7.3-8.5,12.9-17.3,12.9-20
		c0-8.5,36.3-40.8,46.2-41.3c11.3-0.5,16.4,8,25.1,38.2c13.4,48.4,16.4,86.6,12.9,167.4c-1.7,43.9-3,82.6-2.6,85.7
		c2.6,45.8,1.7,50.1-12.9,65.7c-7.8,8.5-15.5,15.1-17.3,15.1S1079.8,1353.8,1082.4,1343.6z"/>
	<path d="M299.4,1169.4c1.7-1.7,15.1-6.2,30.3-10.2c34.6-8.8,97.7-39.6,135.7-66.2c20.4-14.2,30.3-19.1,32.4-15.1
		c2.1,3.6,4.7,3.6,9.6-1.4c7.8-8.5,19.9-10.2,32.9-5.7c7.8,2.6,9.1,4.9,4.7,9.8c-2.6,3.1-3.9,8.8-2.6,12.4
		c1.3,3.6-2.1,10.7-8.2,16.4c-5.6,5.3-10.4,12-10.4,14.2c0,2.6-9.1,12.9-20.4,23.5c-24.2,23.1-48.8,29.7-62.2,16.9
		c-7.3-7.1-10.8-7.1-27.7-2.6C392.4,1167.2,295.6,1173.9,299.4,1169.4z"/>
</g>
</svg>
